# xmcd CD database file
#
# Track frame offsets:
#	150
#	11532
#	23360
#	34090
#	44567
#	54200
#	67600
#	83160
#	96097
#	107237
#	120970
#	133577
#	144947
#	172687
#	185032
#	199195
#	210540
#
# Disc length: 2957 seconds
#
# Revision: 0
# Processed by: cddbd v1.5.1PL0 Copyright (c) Steve Scherf et al.
# Submitted via: CDex 1.51
#
DISCID=d10b8b11
DTITLE=Various Artist - Rythm'n blues cd 02
DYEAR=1900
DGENRE=Blues
TTITLE0=Rufus thomas - walking the dog
TTITLE1=San and dave - hold on i'm coming
TTITLE2=Aretha franklin - Respect
TTITLE3=Eddie floyd - Bring it on home to me
TTITLE4=Righteous brothers - in the midnight hour
TTITLE5=Ben e king - stand by me
TTITLE6=Erick bamy - don't play that song
TTITLE7=Percy sledge - when a man loves a woman
TTITLE8=Jackie wilson - to be loved
TTITLE9=Isley brothers - get down of this train
TTITLE10=Fontella bass - rescue me
TTITLE11=Sam and dave - land of 1000 dances
TTITLE12=Gladys knight and the pips - you and me against the world
TTITLE13=King curtis - groovin with the king
TTITLE14=Barbara mason - yes i'm ready
TTITLE15=Lou rawls - evil woman
TTITLE16=The mar-keys - last night
EXTD=
EXTT0=
EXTT1=
EXTT2=
EXTT3=
EXTT4=
EXTT5=
EXTT6=
EXTT7=
EXTT8=
EXTT9=
EXTT10=
EXTT11=
EXTT12=
EXTT13=
EXTT14=
EXTT15=
EXTT16=
PLAYORDER=
